<svg width="146" height="42" viewBox="0 0 146 42" fill="none" xmlns="http://www.w3.org/2000/svg">
<rect width="42" height="42" rx="12" fill="#F5F5FA"/>
<rect x="52" width="42" height="42" rx="12" fill="#F5F5FA"/>
<rect x="104" width="42" height="42" rx="12" fill="#F5F5FA"/>
<path d="M31.6755 9H10.3245C9.5925 9 9 9.5925 9 10.3245V31.6755C9 32.4075 9.5925 33 10.3245 33H21.819V23.706H18.69V20.085H21.819V17.4105C21.819 14.3115 23.712 12.6255 26.478 12.6255C27.8025 12.6255 28.941 12.7215 29.2725 12.7665V16.0065H27.3525C25.8525 16.0065 25.56 16.7265 25.56 17.7765V20.0865H29.145L28.68 23.7165H25.56V33H31.6755C32.4075 33 33 32.4075 33 31.6755V10.3245C33 9.5925 32.4075 9 31.6755 9Z" fill="#435695"/>
<path d="M70 26.9412L68.5 22.4412L85 10.4412L61.933 19.3122C61.933 19.3122 60.925 19.6572 61.0045 20.2947C61.084 20.9322 61.9075 21.2232 61.9075 21.2232L67.27 23.0277L69.7 30.7587L73.813 27.1422L73.8025 27.1347L79.213 31.2837C80.6725 31.9212 81.2035 30.5937 81.2035 30.5937L85 10.4412L70 26.9412Z" fill="#3CACDC"/>
<path d="M116.6 18H120.2V29.4H116.6V18ZM118.4 12.3C119.6 12.3 120.5 13.2 120.5 14.4C120.35 15.45 119.45 16.5 118.4 16.5C117.2 16.5 116.3 15.45 116.3 14.4C116.3 13.2 117.2 12.3 118.4 12.3ZM122.3 18H125.75V19.5C126.5 18.3 127.85 17.7 129.2 17.7C132.8 17.7 133.4 20.1 133.4 23.1V29.4H129.8V23.85C129.8 22.5 129.8 20.85 128 20.85C126.2 20.85 125.9 22.35 125.9 23.85V29.55H122.3V18ZM132.5 9H117.5C114.5 9 113 10.5 113 13.5V28.5C113 31.5 114.5 33 117.5 33H132.5C135.5 33 137 31.5 137 28.5V13.5C137 10.5 135.5 9 132.5 9Z" fill="#1178B3"/>
</svg>
