<svg width="32" height="32" fill="none" xmlns="http://www.w3.org/2000/svg"><path fill-rule="evenodd" clip-rule="evenodd" d="M4.953 31.27H.001s6.373-19.616 8.48-26.096A7.359 7.359 0 0115.478.089h8.853c2.67 0 4.898 1.128 6.283 3.034 1.385 1.905 1.777 4.344.97 6.831-.808 2.488-1.572 4.836-2.27 6.988a7.33 7.33 0 01-6.582 5.07s-.016-.005 4.22-13.042c.374-1.15.237-2.276-.35-3.084-.587-.807-1.576-1.285-2.886-1.285H16.12c-1.492 0-2.814.96-3.275 2.38L4.953 31.27z" fill="#F0145A"/><path fill-rule="evenodd" clip-rule="evenodd" d="M22.733 22.012H12.75l4.398-13.376 4.976.03-2.89 8.82 4.962.004-1.464 4.522z" fill="url(#paint0_linear)"/><defs><linearGradient id="paint0_linear" x1="12.75" y1="19.45" x2="23.854" y2="25.253" gradientUnits="userSpaceOnUse"><stop stop-color="#F0145A"/><stop offset="1" stop-color="#693264"/></linearGradient></defs></svg>