<svg width="146" height="42" fill="none" xmlns="http://www.w3.org/2000/svg"><rect width="42" height="42" rx="12" fill="#F5F5FA"/><rect x="52" width="42" height="42" rx="12" fill="#F5F5FA"/><rect x="104" width="42" height="42" rx="12" fill="#F5F5FA"/><path d="M31.675 9h-21.35C9.593 9 9 9.592 9 10.325v21.35C9 32.407 9.592 33 10.325 33h11.494v-9.294H18.69v-3.621h3.129V17.41c0-3.098 1.893-4.784 4.659-4.784 1.324 0 2.463.096 2.794.14v3.24h-1.92c-1.5 0-1.792.72-1.792 1.77v2.31h3.585l-.465 3.63h-3.12V33h6.116c.732 0 1.324-.593 1.324-1.325v-21.35C33 9.593 32.407 9 31.675 9z" fill="#435695"/><path d="M70 26.941l-1.5-4.5 16.5-12-23.067 8.871s-1.008.345-.928.983c.079.637.902.928.902.928l5.363 1.805 2.43 7.73 4.113-3.616-.01-.007 5.41 4.149c1.46.637 1.99-.69 1.99-.69L85 10.44l-15 16.5z" fill="#3CACDC"/><path d="M116.6 18h3.6v11.4h-3.6V18zm1.8-5.7c1.2 0 2.1.9 2.1 2.1-.15 1.05-1.05 2.1-2.1 2.1-1.2 0-2.1-1.05-2.1-2.1 0-1.2.9-2.1 2.1-2.1zm3.9 5.7h3.45v1.5c.75-1.2 2.1-1.8 3.45-1.8 3.6 0 4.2 2.4 4.2 5.4v6.3h-3.6v-5.55c0-1.35 0-3-1.8-3s-2.1 1.5-2.1 3v5.7h-3.6V18zm10.2-9h-15c-3 0-4.5 1.5-4.5 4.5v15c0 3 1.5 4.5 4.5 4.5h15c3 0 4.5-1.5 4.5-4.5v-15c0-3-1.5-4.5-4.5-4.5z" fill="#1178B3"/></svg>