<svg width="100" height="100" fill="none" xmlns="http://www.w3.org/2000/svg"><path fill-rule="evenodd" clip-rule="evenodd" d="M15.477 97.722H.001S19.917 36.42 26.5 16.169A22.996 22.996 0 0148.369.28h27.666c8.344 0 15.307 3.524 19.636 9.48 4.327 5.955 5.554 13.575 3.031 21.35l-7.096 21.835c-2.95 9.08-11.12 15.335-20.567 15.844 0 0-.05-.016 13.187-40.756 1.169-3.595.742-7.114-1.094-9.638-1.833-2.523-4.925-4.017-9.017-4.017H50.374a10.763 10.763 0 00-10.235 7.436L15.477 97.722z" fill="#F0145A"/><path fill-rule="evenodd" clip-rule="evenodd" d="M71.038 68.787H39.845l13.744-41.8 15.55.092-9.03 27.567 15.503.009-4.574 14.132z" fill="url(#paint0_linear)"/><defs><linearGradient id="paint0_linear" x1="39.843" y1="60.781" x2="74.541" y2="78.917" gradientUnits="userSpaceOnUse"><stop stop-color="#F0145A"/><stop offset="1" stop-color="#693264"/></linearGradient></defs></svg>