<svg width="92" height="92" fill="none" xmlns="http://www.w3.org/2000/svg"><rect width="92" height="92" rx="24" fill="#fff"/><path d="M54.253 34.46a1.872 1.872 0 002.65 0l2.608-2.608a1.878 1.878 0 000-2.651l-6.583-6.581a1.871 1.871 0 00-2.648 0l-2.609 2.608a1.875 1.875 0 000 2.648l6.582 6.584z" fill="url(#paint0_linear)"/><path d="M38.667 50.338a1.876 1.876 0 002.648 0l2.609-2.61a1.872 1.872 0 000-2.649l-6.583-6.583a1.874 1.874 0 00-2.649 0l-2.608 2.608a1.875 1.875 0 000 2.65l6.583 6.584z" fill="url(#paint1_linear)"/><path d="M68.549 50.964l-2.647-2.65a1.875 1.875 0 00-2.648 0l-1.161 1.16-11.205-11.207 2.427-2.428-6.733-6.731-2.428 2.428-3.092 3.09L38.688 37l6.732 6.733 2.377-2.373L59 52.565l-1.048 1.049a1.87 1.87 0 000 2.648l2.647 2.648a1.87 1.87 0 002.65 0l5.299-5.297a1.871 1.871 0 00.001-2.649z" fill="url(#paint2_linear)"/><path d="M48.978 59.013a2.173 2.173 0 00-2.173-2.173H29.837c-1.2 0-2.173.974-2.173 2.173v3.527h-4.763v7.39h30.558v-7.39h-4.481v-3.527z" fill="url(#paint3_linear)"/><defs><linearGradient id="paint0_linear" x1="53.591" y1="22.071" x2="53.591" y2="35.01" gradientUnits="userSpaceOnUse"><stop stop-color="#EF8080"/><stop offset="1" stop-color="#F0145A"/></linearGradient><linearGradient id="paint1_linear" x1="38.004" y1="37.948" x2="38.004" y2="50.885" gradientUnits="userSpaceOnUse"><stop stop-color="#EF8080"/><stop offset="1" stop-color="#F0145A"/></linearGradient><linearGradient id="paint2_linear" x1="53.893" y1="29.108" x2="53.893" y2="59.461" gradientUnits="userSpaceOnUse"><stop stop-color="#EF8080"/><stop offset="1" stop-color="#F0145A"/></linearGradient><linearGradient id="paint3_linear" x1="38.18" y1="56.84" x2="38.18" y2="69.929" gradientUnits="userSpaceOnUse"><stop stop-color="#EF8080"/><stop offset="1" stop-color="#F0145A"/></linearGradient></defs></svg>