<svg width="413" height="63" fill="none" xmlns="http://www.w3.org/2000/svg"><g clip-path="url(#clip0)"><path d="M10.351 58.091c0-1.111-.381-2.048-1.133-2.822a3.675 3.675 0 00-2.735-1.155c-.97 0-1.809.305-2.517.926-.697.61-1.133 1.352-1.296 2.234H1.634v-2.996H0v7.627h1.634V58.8H2.67c.163.926.599 1.71 1.296 2.331.698.621 1.537.937 2.517.937 1.068 0 1.983-.381 2.735-1.155.752-.762 1.133-1.71 1.133-2.822zm-1.634 0c0 .72-.218 1.319-.654 1.787-.447.48-.97.72-1.58.72-.61 0-1.133-.24-1.569-.72-.447-.468-.665-1.068-.665-1.787 0-.719.218-1.318.665-1.797.436-.47.959-.709 1.57-.709.61 0 1.132.24 1.58.709.435.479.653 1.078.653 1.797zm4.243-3.813v7.628h1.635V59.4h1.58c.784 0 1.438-.251 1.95-.742.512-.49.774-1.1.774-1.82 0-.73-.262-1.328-.774-1.83-.523-.49-1.166-.73-1.95-.73H12.96zm3.16 1.471c.327 0 .6.11.817.316.218.207.327.469.327.774 0 .305-.109.567-.327.773-.218.207-.49.316-.817.316h-1.525V55.75h1.525zm12.142 6.157v-7.628h-1.417l-3.759 4.85v-4.85h-1.634v7.628h1.416l3.76-4.85v4.85h1.634zm2.063-1.471v3.05h1.634v-1.58h4.576v1.58h1.635v-3.05h-.927v-6.157H31.96v2.343c0 .512-.044.991-.13 1.438a7.301 7.301 0 01-.284 1.09 5.09 5.09 0 01-.37.73c-.142.218-.23.36-.284.425-.065.054-.098.109-.13.13h-.436zm3.268-3.814v-.872h2.016v4.686h-3.214l.13-.131c.077-.087.175-.229.295-.436a7.42 7.42 0 00.348-.72c.12-.272.218-.642.295-1.089.087-.447.13-.926.13-1.438zm13.718 5.285v-7.628h-1.416l-3.76 4.85v-4.85h-1.634v7.628h1.417l3.759-4.85v4.85h1.634zm4.571-7.628h-1.635v2.343c0 .915.24 1.623.72 2.125.49.512 1.154.762 2.004.762.73 0 1.33-.141 1.798-.435v2.833h1.635v-7.628h-1.635v3.215l-.185.141c-.12.087-.305.175-.556.273a2.37 2.37 0 01-.784.13c-.436 0-.774-.12-1.014-.36-.228-.25-.348-.598-.348-1.056v-2.343zm14.104 0H64.35v3.051h-3.269v-3.05h-1.634v7.627h1.634V58.8h3.27v3.106h1.634v-7.628zm6.969 4.413h-1.852l.926-2.506.926 2.506zm.545 1.417l.653 1.798h1.744L72.9 54.278h-1.743l-2.996 7.628h1.743l.654-1.798H73.5zm9.522-5.83h-1.634v7.628h1.634v-2.18l.98-1.09 2.235 3.27h1.906l-3.05-4.468 2.832-3.16H86.02l-2.997 3.324v-3.324zm8.439 3.813c0-.697.24-1.296.72-1.776.468-.49 1.046-.73 1.732-.73.687 0 1.264.24 1.733.73.479.48.719 1.079.719 1.776 0 .709-.24 1.297-.72 1.776-.468.49-1.045.73-1.732.73-.686 0-1.264-.24-1.732-.73-.48-.479-.72-1.067-.72-1.776zm-1.688 0c0 1.09.403 2.038 1.198 2.812.795.773 1.776 1.165 2.942 1.165 1.166 0 2.147-.392 2.942-1.165.795-.774 1.199-1.722 1.199-2.812 0-1.1-.404-2.037-1.199-2.81-.795-.774-1.776-1.167-2.942-1.167-1.166 0-2.147.393-2.942 1.166-.795.774-1.198 1.71-1.198 2.811zm14.975-.489l-2.615-3.324h-1.471v7.628h1.635v-5.067l2.451 3.105 2.452-3.127v5.089h1.634v-7.628h-1.449l-2.637 3.324zm13.611-3.324h-6.483v7.628h1.635v-6.157h3.214v6.157h1.634v-7.628zm6.971 4.413h-1.853l.927-2.506.926 2.506zm.545 1.417l.653 1.798h1.744l-2.997-7.628h-1.743l-2.996 7.628h1.743l.654-1.798h2.942zm11.108-5.83h-1.634v3.051h-3.269v-3.05h-1.635v7.627h1.635V58.8h3.269v3.106h1.634v-7.628zm4.679 0h-1.635v7.628h1.635v-7.628zm8.711 0h-3.378c-.763 0-1.384.24-1.874.72-.491.479-.741 1.078-.741 1.786 0 .306.054.589.141.861.098.273.207.48.338.632.12.153.251.294.414.425a2.2 2.2 0 00.327.25c.055.023.109.055.142.066l-1.635 2.888h1.744l1.471-2.67h1.416v2.67h1.635v-7.628zm-4.359 2.506c0-.305.098-.544.294-.74a1.01 1.01 0 01.741-.295h1.689v2.016h-1.689c-.294 0-.545-.098-.741-.283a.93.93 0 01-.294-.698z" fill="#fff"/><path d="M4.981 1H0v35.975h4.981V23.629c0-2.258.562-4.04 1.685-5.294 1.123-1.254 2.661-1.906 4.566-1.906 1.636 0 3.003.602 4.102 1.756 1.099 1.179 1.66 2.659 1.66 4.44V37H22V22.625c0-3.311-.903-5.92-2.71-7.877-1.807-1.957-4.176-2.935-7.057-2.935-.83 0-1.66.1-2.466.326-.83.226-1.49.476-2.027.752-.537.276-1.05.577-1.514.928-.464.352-.78.603-.927.753-.147.15-.269.251-.318.326V1z" fill="#F0145A"/><path d="M33.135 1H28v35.945h5.135V1zm30.287 25.418l.257-2.567c0-3.441-1.13-6.317-3.44-8.627-2.311-2.311-5.187-3.44-8.627-3.44-3.44 0-6.42 1.232-8.884 3.696-2.465 2.465-3.697 5.392-3.697 8.884 0 3.595 1.284 6.675 3.8 9.243 2.516 2.568 5.546 3.851 9.037 3.851a13.32 13.32 0 003.8-.565c1.233-.41 2.26-.821 2.979-1.232.77-.462 1.54-.976 2.208-1.54.667-.565 1.13-.976 1.335-1.233.205-.257.36-.41.462-.565l-3.338-3.338-.77.976c-.514.616-1.386 1.233-2.619 1.9-1.284.668-2.619.976-4.057.976-2.002 0-3.697-.617-5.135-1.9-1.437-1.284-2.31-2.773-2.567-4.519h19.256zm-11.81-10.27c1.9 0 3.44.565 4.724 1.643 1.232 1.13 2.003 2.516 2.31 4.262H44.372c.462-1.746 1.284-3.132 2.568-4.262 1.232-1.078 2.824-1.643 4.673-1.643zm35.759 19.308c0 2.259-.667 4.108-2.054 5.545-1.335 1.387-3.03 2.106-5.135 2.106a9.702 9.702 0 01-2.721-.411c-.873-.257-1.54-.565-2.106-.924a11.605 11.605 0 01-1.592-1.181l-.924-.925c-.154-.154-.257-.308-.36-.41l-3.337 3.337.41.514c.257.36.72.821 1.336 1.335.616.462 1.335.975 2.157 1.489.821.462 1.848.873 3.132 1.232a14.8 14.8 0 004.005.565c3.492 0 6.368-1.18 8.781-3.543 2.362-2.413 3.543-5.289 3.543-8.78V12.296h-5.135v2.567l-.873-.77c-.565-.513-1.438-1.027-2.67-1.54a10.17 10.17 0 00-3.903-.77c-3.132 0-5.802 1.18-8.113 3.594-2.31 2.413-3.44 5.289-3.44 8.73 0 3.44 1.13 6.315 3.44 8.729 2.31 2.413 4.981 3.594 8.114 3.594.872 0 1.694-.102 2.567-.308.822-.257 1.49-.513 2.054-.77a7.667 7.667 0 001.54-.924c.463-.36.822-.617.925-.72l.36-.359v2.106zM73.507 24.107c0-2.156.667-3.954 2.054-5.443 1.386-1.489 3.03-2.26 4.878-2.26 1.849 0 3.492.771 4.878 2.26 1.335 1.49 2.054 3.287 2.054 5.443 0 2.157-.719 3.954-2.054 5.443-1.386 1.49-3.03 2.26-4.878 2.26-1.849 0-3.492-.77-4.878-2.26-1.387-1.489-2.054-3.286-2.054-5.443zm45.802 12.838V21.026c0-2.619-.976-4.827-2.876-6.573-1.9-1.797-4.365-2.67-7.394-2.67a13.31 13.31 0 00-3.492.462c-1.13.36-2.054.72-2.722 1.13-.667.41-1.335.873-1.951 1.438-.616.513-.975.873-1.18 1.078-.155.206-.309.36-.412.514l3.338 3.337.668-.873c.41-.564 1.129-1.078 2.208-1.643 1.078-.564 2.259-.821 3.543-.821 1.489 0 2.721.462 3.697 1.335s1.438 2.003 1.438 3.286l-8.986 1.54c-2.209.36-4.006 1.233-5.238 2.62-1.284 1.386-1.951 3.08-1.951 5.083 0 1.9.821 3.543 2.464 4.981 1.695 1.49 3.749 2.208 6.265 2.208.873 0 1.695-.102 2.516-.36a11.082 11.082 0 002.106-.718 7.68 7.68 0 001.54-.924c.462-.36.77-.617.976-.72.154-.153.256-.307.308-.359v2.568h5.135zm-11.811-4.108c-1.335 0-2.413-.308-3.183-.925-.822-.616-1.181-1.335-1.181-2.156 0-.873.256-1.643.821-2.208.565-.565 1.335-.976 2.26-1.13l7.959-1.284v.514c0 2.31-.565 4.056-1.746 5.34-1.181 1.233-2.824 1.849-4.93 1.849zM130.64 1h-5.135v35.945h5.135V1zm23.349 14.121l-.308-.36c-.206-.205-.514-.462-.976-.821-.462-.36-.976-.668-1.54-1.027-.565-.308-1.336-.565-2.26-.822a13.33 13.33 0 00-2.875-.308c-2.517 0-4.571.72-6.214 2.157-1.694 1.49-2.516 3.132-2.516 5.032 0 1.387.308 2.516.924 3.543.617.976 1.387 1.695 2.362 2.106.925.462 1.952.924 3.03 1.284 1.078.359 2.054.667 3.03.924.924.308 1.694.667 2.311 1.13.616.462.924 1.078.924 1.797 0 .924-.36 1.694-1.027 2.26-.668.513-1.695.82-3.081.82-1.13 0-2.26-.307-3.338-.82-1.078-.566-1.746-1.028-2.105-1.387-.308-.36-.565-.668-.719-.873l-3.338 3.337.36.463a7.77 7.77 0 001.129 1.078c.565.462 1.181.873 1.849 1.284.719.41 1.643.77 2.721 1.078a12.66 12.66 0 003.441.462c2.721 0 4.981-.77 6.675-2.26 1.695-1.488 2.568-3.337 2.568-5.442 0-1.387-.308-2.568-.924-3.492-.617-.976-1.387-1.695-2.363-2.157-.924-.513-1.951-.924-3.029-1.284-1.079-.359-2.054-.718-3.03-.924a6.948 6.948 0 01-2.311-1.13c-.616-.462-.924-1.078-.924-1.797 0-.667.308-1.284.976-1.797.616-.514 1.489-.77 2.619-.77.821 0 1.643.205 2.413.565.822.359 1.386.667 1.643.924l.565.565 3.338-3.338zM196.957 37h2.672V18.76h-15.772V37h2.654V21.266h10.446V37zm23.379-9.11c0 1.966-.668 3.636-1.967 4.99-1.299 1.355-2.876 2.023-4.694 2.023-1.819 0-3.396-.668-4.695-2.04-1.298-1.374-1.948-3.025-1.948-4.992s.65-3.618 1.948-4.973c1.299-1.354 2.876-2.04 4.695-2.04 1.818 0 3.395.686 4.694 2.04 1.299 1.355 1.967 3.025 1.967 4.992zm-15.957 0c0 2.671.891 4.917 2.709 6.754 1.818 1.818 4.008 2.746 6.605 2.746 2.579 0 4.769-.928 6.569-2.746 1.818-1.837 2.709-4.082 2.709-6.754 0-2.672-.891-4.917-2.709-6.754-1.8-1.837-3.99-2.765-6.569-2.765-2.597 0-4.787.928-6.605 2.765-1.818 1.837-2.709 4.082-2.709 6.754zm22.043-.019c0 2.635.89 4.88 2.69 6.735 1.782 1.856 3.934 2.765 6.42 2.765.891 0 1.763-.13 2.616-.408.854-.278 1.559-.575 2.097-.91a10.463 10.463 0 001.559-1.131c.501-.427.835-.724.983-.91.149-.185.26-.315.334-.426l-1.892-1.707-.613.742c-.427.52-1.113 1.02-2.059 1.522-.965.52-1.967.76-3.025.76-1.744 0-3.265-.668-4.546-2.022-1.28-1.355-1.911-3.025-1.911-4.991 0-1.967.631-3.637 1.911-4.992 1.281-1.354 2.802-2.04 4.546-2.04.687 0 1.355.11 1.986.315.63.223 1.131.464 1.54.724a6.5 6.5 0 011.094.927c.334.371.557.612.65.742.111.149.185.242.222.316l1.912-1.893-.798-.872c-.52-.594-1.41-1.206-2.635-1.818a8.823 8.823 0 00-3.989-.928c-2.468 0-4.602.928-6.402 2.783-1.8 1.856-2.69 4.082-2.69 6.717zm22.785-9.11v5.325c0 2.987-.167 5.288-.464 6.902-.297 1.596-.668 2.635-1.113 3.08-.445.446-1.058.668-1.837.668-.52 0-1.021-.13-1.522-.37v2.653l.26.074c.149.074.371.13.687.204.315.056.631.093.946.093.909 0 1.689-.186 2.338-.557.631-.371 1.225-1.02 1.763-1.948.519-.928.927-2.301 1.187-4.082.26-1.782.408-4.027.408-6.698v-2.858h7.979V37.02h2.672V18.78l-13.304-.018zm23.36 20.892c-.686 1.912-1.837 2.858-3.451 2.858a4.93 4.93 0 01-1.892-.39v2.486l.259.075c.186.074.483.148.854.204a5.99 5.99 0 001.169.092c1.317 0 2.412-.39 3.284-1.206.854-.816 1.67-2.189 2.431-4.119l8.368-20.892h-2.858l-5.881 14.825-5.901-14.825h-2.857L273.514 37l-.947 2.653zm26.793-20.892h-12.153V37h2.653V21.229h9.5V18.76zm17.108 0l-11.022 13.674V18.761h-2.653V37h2.264l11.021-13.675V37h2.672V18.76h-2.282z" fill="#fff"/><path fill-rule="evenodd" clip-rule="evenodd" d="M353.258 27.145h-11.929l5.256-15.991 5.947.035-3.453 10.546 5.929.004-1.75 5.406z" fill="url(#paint0_linear)"/><path fill-rule="evenodd" clip-rule="evenodd" d="M328.904 47.904H323s10.754-33.11 13.266-40.84A8.774 8.774 0 01344.609 1h10.556c3.183 0 5.84 1.345 7.492 3.618 1.65 2.273 2.119 5.181 1.156 8.148l-2.708 8.334a8.739 8.739 0 01-7.846 6.047s-.019-.006 5.031-15.555c.446-1.372.283-2.715-.417-3.678-.7-.963-1.88-1.533-3.441-1.533h-9.058a4.106 4.106 0 00-3.904 2.838l-12.566 38.685zM175.227 1h5.844l-15.226 46.843H160L175.227 1z" fill="#F0145A"/></g><defs><linearGradient id="paint0_linear" x1="341.328" y1="24.082" x2="354.6" y2="31.017" gradientUnits="userSpaceOnUse"><stop stop-color="#F0145A"/><stop offset="1" stop-color="#693264"/></linearGradient><clipPath id="clip0"><path fill="#fff" d="M0 0h413v63H0z"/></clipPath></defs></svg>