<svg width="42" height="47" fill="none" xmlns="http://www.w3.org/2000/svg"><path fill-rule="evenodd" clip-rule="evenodd" d="M30.258 26.145h-11.93l5.257-15.991 5.947.035-3.453 10.546 5.929.003-1.75 5.407z" fill="url(#paint0_linear)"/><path fill-rule="evenodd" clip-rule="evenodd" d="M5.904 46.904H0s10.754-33.11 13.266-40.84A8.774 8.774 0 0121.609 0h10.556c3.183 0 5.84 1.345 7.492 3.618 1.65 2.273 2.119 5.181 1.156 8.148L38.105 20.1a8.74 8.74 0 01-7.846 6.047s-.019-.006 5.03-15.555c.447-1.372.284-2.715-.416-3.678-.7-.963-1.88-1.533-3.44-1.533h-9.059a4.107 4.107 0 00-3.904 2.838L5.904 46.904z" fill="#F0145A"/><defs><linearGradient id="paint0_linear" x1="18.328" y1="23.082" x2="31.6" y2="30.017" gradientUnits="userSpaceOnUse"><stop stop-color="#F0145A"/><stop offset="1" stop-color="#693264"/></linearGradient></defs></svg>