<svg width="187" height="48" fill="none" xmlns="http://www.w3.org/2000/svg"><path d="M9.434.372L.21 5.67l9.224 5.296L.21 16.18l9.224 5.297L.21 26.69l9.224 5.296L21.425 25.2l6.541 6.786V21.517l9.224-5.296L9.434.372zM26.289 27.6L11.111 11.876l15.178 8.607V27.6zM186.79 24h-3.27v-5.297h-2.935V24h-3.354v2.814h3.354v13.738h2.935v-13.78h3.27V24zm-16.771-.414a5.597 5.597 0 00-2.812.585 5.505 5.505 0 00-2.135 1.898v-2.07h-2.935v16.553h2.935v-9.476a4.78 4.78 0 01.247-1.95 4.835 4.835 0 011.01-1.692 4.376 4.376 0 012.935-1.158 3.463 3.463 0 012.516.91c.333.353.587.772.746 1.228.159.456.219.94.176 1.42v10.594h2.935v-10.76a7.14 7.14 0 00-.754-3.31 5.584 5.584 0 00-2.013-2.151 6.29 6.29 0 00-2.851-.662v.041zm-24.109 7.49a5.455 5.455 0 011.845-3.476 5.801 5.801 0 013.774-1.324 5.378 5.378 0 013.522 1.241 5.034 5.034 0 011.761 3.559H145.91zm13.837 2.483a7.07 7.07 0 00.083-1.325 9.876 9.876 0 00-1.006-4.386 8.183 8.183 0 00-2.851-3.227 7.622 7.622 0 00-4.36-1.159 9.197 9.197 0 00-4.529 1.159 8.04 8.04 0 00-3.102 3.144 8.83 8.83 0 00-1.091 4.47 8.83 8.83 0 001.091 4.468 8.04 8.04 0 003.102 3.145 9.197 9.197 0 004.529 1.159 8.803 8.803 0 004.863-1.407 7.03 7.03 0 002.767-3.642h-3.018a3.575 3.575 0 01-1.761 1.739 6.405 6.405 0 01-6.625-.58 5.54 5.54 0 01-1.929-3.558h13.837zm-28.302 4.51a6.273 6.273 0 01-3.019-.745 6.002 6.002 0 01-2.18-2.152 6.26 6.26 0 010-5.958 6 6 0 012.18-2.152 6.484 6.484 0 016.038 0 6 6 0 012.18 2.152 6.26 6.26 0 010 5.958 6.002 6.002 0 01-2.18 2.152 6.273 6.273 0 01-3.019.745zm5.954-14.07v2.898a7.456 7.456 0 00-2.684-2.4 7.844 7.844 0 00-3.689-.91 8.725 8.725 0 00-4.277 1.158 8.05 8.05 0 00-3.103 3.145 8.506 8.506 0 00-1.174 4.303 8.819 8.819 0 001.174 4.386 8.637 8.637 0 003.103 3.145 8.259 8.259 0 004.277 1.159 7.714 7.714 0 003.607-.867 7.596 7.596 0 002.766-2.444v2.318a4.999 4.999 0 01-.326 2.006 5.04 5.04 0 01-1.1 1.718 5.836 5.836 0 01-4.109 1.324 5.688 5.688 0 01-2.767-.58 4.549 4.549 0 01-1.845-1.406 2.886 2.886 0 01-.587-1.738h-2.935a5.331 5.331 0 001.174 3.31 6.86 6.86 0 003.019 2.234 9.327 9.327 0 003.941.828c1.449.003 2.88-.308 4.193-.91a7.37 7.37 0 003.103-2.648 7.583 7.583 0 001.174-4.221V24h-2.935zm-20.461 16.553h2.977V24h-2.935l-.042 16.552zm0-19.531h2.977v-3.642h-2.935l-.042 3.642zm-6.541 19.53h2.935V16.677h-2.935v23.876zm-6.541 0h2.935V16.677h-2.935v23.876zm-16.268-9.434a5.457 5.457 0 011.845-3.476 5.8 5.8 0 013.773-1.324 5.377 5.377 0 013.522 1.241c.52.447.945.992 1.247 1.603a5.02 5.02 0 01.514 1.956h-10.9zm13.836 2.483c.07-.438.098-.881.084-1.324a9.903 9.903 0 00-1.006-4.386 8.185 8.185 0 00-2.851-3.228 7.623 7.623 0 00-4.36-1.159 9.193 9.193 0 00-4.529 1.159 8.044 8.044 0 00-3.103 3.145 8.836 8.836 0 00-1.09 4.469 8.835 8.835 0 001.09 4.469 8.044 8.044 0 003.103 3.145 9.193 9.193 0 004.528 1.158 8.806 8.806 0 004.864-1.407A7.033 7.033 0 00100.921 36h-3.019a3.575 3.575 0 01-1.76 1.738 6.404 6.404 0 01-6.625-.58 5.23 5.23 0 01-1.328-1.587 5.165 5.165 0 01-.6-1.971h13.835zM84.15 24h-3.27v-5.297h-2.893V24h-3.355v2.814h3.355v13.738h2.934v-13.78h3.27L84.15 24zM63.73 38.193a6.27 6.27 0 01-3.018-.745 5.998 5.998 0 01-2.18-2.151 6.266 6.266 0 010-5.96 5.424 5.424 0 012.18-2.15 6.483 6.483 0 016.038 0 5.998 5.998 0 012.18 2.15 6.265 6.265 0 010 5.96 5.424 5.424 0 01-2.18 2.151 5.821 5.821 0 01-3.02.745zm5.997-20.814v9.435a7.273 7.273 0 00-2.758-2.438 7.385 7.385 0 00-3.615-.79 8.182 8.182 0 00-4.193 1.159 8.643 8.643 0 00-3.103 3.145 8.79 8.79 0 00-1.174 4.386 8.79 8.79 0 001.174 4.386 8.643 8.643 0 003.103 3.145 8.18 8.18 0 004.193 1.158 7.57 7.57 0 003.69-.827 8.224 8.224 0 002.683-2.4v2.814h2.935V17.379h-2.935zM43.312 38.234a6.271 6.271 0 01-3.019-.744 5.999 5.999 0 01-2.18-2.152 6.266 6.266 0 010-5.959 5.424 5.424 0 012.18-2.152 6.483 6.483 0 016.038 0 5.998 5.998 0 012.18 2.152 6.266 6.266 0 010 5.959 5.424 5.424 0 01-2.18 2.152 5.822 5.822 0 01-3.02.744zM49.266 24v2.814a7.272 7.272 0 00-2.758-2.438 7.385 7.385 0 00-3.615-.79 8.556 8.556 0 00-4.282 1.163 8.41 8.41 0 00-3.098 3.14 8.79 8.79 0 00-1.174 4.387 8.79 8.79 0 001.174 4.386 8.41 8.41 0 003.098 3.141 8.554 8.554 0 004.282 1.162 7.57 7.57 0 003.69-.827 8.224 8.224 0 002.683-2.4v2.814H52.2V24h-2.935z" fill="#000"/></svg>