<svg width="138" height="61" fill="none" xmlns="http://www.w3.org/2000/svg"><path fill-rule="evenodd" clip-rule="evenodd" d="M26.542 4.667l.215 1.524c-6.854 13.863 1.886 12.734 1.886 12.734l1.104-.198.168.335c16.238-1.83 25.116 6.573 25.116 6.573C56.212 5.75 26.542 4.666 26.542 4.666z" fill="#F8B829"/><path d="M16.345 51.5c-.69 4.574 3.067 7.228 3.665 5.764 1.656-2.15 2.239-1.525 3.067-4.758a6.22 6.22 0 011.042-1.083 59.254 59.254 0 002.423-2.654 41.166 41.166 0 005.827-8.494 15.529 15.529 0 001.809-10.187 18.482 18.482 0 00-2.653-4.94 5.54 5.54 0 01-.46-2.502 7.079 7.079 0 00-1.119-3.614 3.718 3.718 0 01-.981-2.882c.199-1.16.199-2.303.368-3.462a13.993 13.993 0 00-1.166-6.314s-1.073-1.89-2.024-1.418a10.392 10.392 0 00-11.285.137s-21.957 13.954-2.162 40.764c-.598 3.477 1.533 7.06 3.19 9.44" fill="#005D86"/><path d="M26.45 20.893L23.475 7.412s-1.748-5.185-6.348 1.357l-.766-1.007c-4.232 5.963-9.967 13.115-8.694 20.862a9.878 9.878 0 001.455 4.022 9.939 9.939 0 003.022 3.04 9.438 9.438 0 0011.93-.992c2.391-1.983 4.339-6.009 2.376-13.801z" fill="#fff"/><path fill-rule="evenodd" clip-rule="evenodd" d="M29.915 19.108s14.199-2.196 25.116 6.573c0 0-10.273-13.405-26.649-10.919.015 0-1.165 3.294 1.533 4.346z" fill="#F19320"/><path d="M55.031 25.681a15.529 15.529 0 00-2.499-9.821c-.153-.198-1.334 2.364-1.35 2.593a5.315 5.315 0 00.752 3.05c.782 1.433 2.683 2.607 3.067 4.148" fill="#E95253"/><path d="M1.533 45.049a10.78 10.78 0 006.287.411c2.929.397 4.462 1.312 7.958 1.708 4.278 0 8.525-.457 12.773-.854 1.38-.122 4.446-.29 5.612.793.674.626.475 2.318.49 3.203a26.454 26.454 0 00-7.912-1.678c-3.066 0-6.24.138-9.353.107a35.593 35.593 0 01-6.333-.549c-1.947-.366-3.864-.87-5.811-1.266-1.41-.305-3.128-.549-3.71-1.875z" fill="#9B5F48"/><path d="M28.873 47.794c0 .488-.43 1.525-.828 1.525-.399 0-.828-1.022-.828-1.526V46.07c0-.488.306-.976.705-.976a1.09 1.09 0 01.92.976l.03 1.724z" fill="#969595"/><path d="M27.217 48.038c0 .38-.307 1.174-.629 1.174s-.629-.793-.629-1.175V46.68c0-.381.23-.762.552-.762a.799.799 0 01.675.762l.03 1.358z" fill="#838383"/><path d="M12.006 47.794c0 .488.43 1.525.828 1.525.399 0 .828-1.022.828-1.526V46.07c0-.488-.307-.976-.705-.976a1.09 1.09 0 00-.92.976l-.031 1.724z" fill="#969595"/><path d="M13.662 48.038c0 .38.307 1.174.629 1.174s.628-.793.628-1.175V46.68c0-.381-.23-.762-.552-.762a.799.799 0 00-.674.762l-.031 1.358z" fill="#838383"/><path d="M29.578 14.457c.368-.87 1.043-3.568-.828-8.22-.337-.716-1.18-2.379-2.975-1.525-.26.397 3.236 2.578 2.515 10.264 0 0-.905 3.217 1.625 4.117a5.844 5.844 0 01-.567-2.531 5.78 5.78 0 01.23-2.105zm-.169.305h.016-.016z" fill="#003B55"/><path d="M26.542 11.62c.675 3.6-1.135 5.643-4.723 5.689-2.76 0-6.777-.58-7.16-3.935-.322-2.913 1.533-6.862 4.508-7.747 4.124-1.25 6.731 2.455 7.39 5.994h-.015z" fill="#F8B829"/><path d="M24.35 11.361a2.594 2.594 0 01-.484 2.504 2.623 2.623 0 01-2.4.897c-1.747 0-4.185-.412-4.339-2.532a4.555 4.555 0 01.65-2.756 4.593 4.593 0 012.156-1.85c2.469-.685 4.002 1.526 4.37 3.676l.046.061z" fill="#005D86"/><path fill-rule="evenodd" clip-rule="evenodd" d="M23 10.904c0 .568-.227 1.113-.631 1.515a2.16 2.16 0 01-3.047 0 2.137 2.137 0 010-3.03 2.16 2.16 0 013.047 0c.404.402.631.947.631 1.515z" fill="#151410"/><path fill-rule="evenodd" clip-rule="evenodd" d="M21.145 9.547c0 .38-.338 0-.338 0s.338-.397.338 0zm-1.212-.016c-.214 0-.26.23-.291.473a.412.412 0 00-.2.61s1.043-.976 1.12-.915a.8.8 0 00-.629-.168z" fill="#fff"/><path d="M54.203 44.713a.847.847 0 01.644.275l1.81 1.921c-2.745 3.477-8.004 4.255-12.022 2.776a10.72 10.72 0 01-4.891-3.994 10.633 10.633 0 01-1.779-6.04 10.992 10.992 0 011.396-6.248 11.075 11.075 0 014.646-4.428 11.34 11.34 0 0112.358 1.876l-1.533 2.074c-.828 1.19-2.1-.122-2.96-.534a7.058 7.058 0 00-4.078-.549 6.432 6.432 0 00-3.63 2.162 6.37 6.37 0 00-1.491 3.938 8.01 8.01 0 00.385 4.07 8.052 8.052 0 002.344 3.357 6.759 6.759 0 008.065-.427c.213-.156.472-.237.736-.229zm8.664-17.095v22.478H58.65V27.618h4.217zm7.758 6.939v15.555h-4.17V34.557h4.17zm.506-4.514c0 3.248-5.182 3.263-5.182 0 0-3.264 5.182-3.264 5.182 0zm14.414 7.975c-.66.885-1.365.336-2.101 0a4.36 4.36 0 00-2.99-.472c-2.116.472-2.73 2.623-2.79 4.575-.062 1.952.352 4.178 2.284 4.956a3.96 3.96 0 003.067-.107c.751-.35 1.824-1.677 2.606-.656l1.196 1.525a8.214 8.214 0 01-3.995 2.32 8.246 8.246 0 01-4.622-.2 7.658 7.658 0 01-3.577-2.933 7.594 7.594 0 01-1.222-4.448 7.668 7.668 0 011.049-4.602 7.73 7.73 0 013.55-3.13 8.23 8.23 0 014.583-.38 8.203 8.203 0 014.066 2.134l-1.104 1.418zm7.528-10.4v12.764h.69a1.232 1.232 0 001.074-.534l3.45-4.575a1.669 1.669 0 011.41-.701h3.818l-4.462 5.642a4.14 4.14 0 01-1.226 1.113c.451.342.827.773 1.104 1.266l4.83 7.488h-3.757a1.54 1.54 0 01-1.41-.717l-3.527-5.703a1.116 1.116 0 00-1.12-.58h-.874v7.015h-4.14V27.618h4.14zm16.545 0v12.764h.69a1.233 1.233 0 001.073-.534l3.45-4.575a1.67 1.67 0 011.411-.701h3.818l-4.493 5.673a4.14 4.14 0 01-1.226 1.113c.451.342.827.773 1.104 1.266l4.83 7.487h-3.742a1.538 1.538 0 01-1.41-.716l-3.512-5.72a1.117 1.117 0 00-1.119-.579h-.874v7.015h-4.186V27.618h4.186zm18.415 26.657a1.34 1.34 0 01-.543.643c-.246.15-.534.22-.821.196h-3.067l2.913-6.314-6.271-14.304h3.665a1.199 1.199 0 011.165.747l2.975 7.457c.214.59.398 1.18.552 1.77.184-.596.398-1.19.628-1.785l2.76-7.427a1.208 1.208 0 011.135-.747h3.343l-8.434 19.764z" fill="#fff"/></svg>