<svg width="174" height="44" fill="none" xmlns="http://www.w3.org/2000/svg"><g clip-path="url(#clip0)" fill="#fff"><path d="M44.106 22c0-4.956-1.677-9.767-4.76-13.653A22.06 22.06 0 0027.12.59a22.102 22.102 0 00-14.413 1.485A22.029 22.029 0 002.328 12.16 21.953 21.953 0 00.466 26.497 21.99 21.99 0 007.923 38.89a22.085 22.085 0 0013.557 5.102A22.09 22.09 0 0035.285 39.6h-13.79a17.67 17.67 0 01-9.614-3.157 17.607 17.607 0 01-6.292-7.91 17.56 17.56 0 01-.9-10.056 17.587 17.587 0 014.789-8.895 17.655 17.655 0 018.901-4.806c3.374-.7 6.88-.4 10.084.865a17.636 17.636 0 017.948 6.25 17.571 17.571 0 013.197 9.581V35.2A21.614 21.614 0 0044.106 22z"/><path d="M33.065 32.986v-9.24h-6.851a4.741 4.741 0 01-2.074 2.271 4.758 4.758 0 01-5.755-.92 4.732 4.732 0 011.886-7.7 4.76 4.76 0 015.531 1.831h6.925a11.112 11.112 0 00-2.991-5.276 11.17 11.17 0 00-11.39-2.633 11.144 11.144 0 00-5.013 3.426 11.092 11.092 0 00-1.654 11.546 11.122 11.122 0 003.851 4.689 11.162 11.162 0 005.744 1.976l11.791.03zm26.332-17.19a7.6 7.6 0 00-4.211 1.283 7.572 7.572 0 00-2.788 3.4 7.55 7.55 0 001.654 8.242 7.603 7.603 0 008.266 1.634 7.582 7.582 0 003.402-2.788 7.555 7.555 0 001.278-4.203 7.478 7.478 0 00-2.206-5.378 7.514 7.514 0 00-5.395-2.19zm0 11.528a3.83 3.83 0 01-2.795-1.147 3.812 3.812 0 01-1.087-2.813 3.88 3.88 0 012.343-3.806 3.903 3.903 0 015.21 2.247c.181.5.257 1.03.225 1.56a3.806 3.806 0 01-2.376 3.677 3.83 3.83 0 01-1.52.282zm13.732-8.653v-2.537h-3.705v14.343h3.704v-6.79a3.572 3.572 0 011.293-2.924 3.59 3.59 0 013.118-.728v-4.121a4.418 4.418 0 00-2.656.66 4.402 4.402 0 00-1.754 2.097zm17.172-.777a5.687 5.687 0 00-4.676-2.098 7.277 7.277 0 00-5.062 2.338 7.24 7.24 0 00-1.907 5.23 7.231 7.231 0 001.907 5.23 7.263 7.263 0 005.062 2.338 5.701 5.701 0 004.676-2.097v1.701h3.705V16.134H90.3v1.76zm-3.985 9.518a3.86 3.86 0 01-2.886-1.148 3.841 3.841 0 01-1.098-2.9c0-1.05.418-2.057 1.163-2.8a3.975 3.975 0 015.614 0 3.955 3.955 0 011.162 2.8 3.847 3.847 0 01-1.093 2.884 3.866 3.866 0 01-2.862 1.164zm18.907-11.616a4.89 4.89 0 00-4.278 2.01v-1.672h-3.69v14.343h3.69v-7.685c0-2.493 1.353-3.55 3.161-3.55a2.667 2.667 0 012.107.805 2.657 2.657 0 01.73 2.13v8.345h3.705v-8.8c0-3.8-2.381-5.926-5.425-5.926zm19.451 2.186a5.45 5.45 0 00-4.587-2.186 7.223 7.223 0 00-5.108 2.178 7.187 7.187 0 00-2.037 5.155 7.173 7.173 0 004.37 6.76 7.203 7.203 0 002.775.574 5.45 5.45 0 004.587-2.185v1.554a3.327 3.327 0 01-2.297 3.383 3.347 3.347 0 01-1.452.137 3.713 3.713 0 01-3.764-2.01l-3.16 1.82a7.342 7.342 0 002.909 2.707 7.368 7.368 0 003.898.798c3.778 0 7.483-2.127 7.483-6.82V16.134h-3.617v1.848zm-4.013 9.078a3.93 3.93 0 01-3.562-2.474 3.908 3.908 0 01.9-4.235 3.93 3.93 0 016.012.616c.43.64.66 1.392.663 2.163a3.83 3.83 0 01-4.013 3.93zm17.716-11.264a7.363 7.363 0 00-5.399 2.166 7.325 7.325 0 00-2.129 5.402 7.319 7.319 0 002.244 5.531 7.364 7.364 0 005.622 2.037 7.262 7.262 0 006.204-3.065l-2.94-1.716a3.996 3.996 0 01-3.22 1.466 3.755 3.755 0 01-2.543-.585 3.74 3.74 0 01-1.544-2.099h10.879c.092-.483.141-.974.147-1.466a7.227 7.227 0 00-1.99-5.422 7.267 7.267 0 00-5.331-2.249zM134.613 22a3.562 3.562 0 011.318-2.186 3.58 3.58 0 012.446-.747A3.463 3.463 0 01141.935 22h-7.322zm24.376-4.121a5.688 5.688 0 00-4.616-2.083 7.272 7.272 0 00-5.062 2.338 7.233 7.233 0 00-1.907 5.23 7.222 7.222 0 001.907 5.23 7.27 7.27 0 005.062 2.338 5.699 5.699 0 004.675-2.097v1.701h3.705V16.134h-3.705l-.059 1.745zm-3.984 9.518a3.86 3.86 0 01-3.715-2.49 3.832 3.832 0 01-.24-1.558c0-1.05.418-2.057 1.163-2.8a3.974 3.974 0 015.613 0 3.953 3.953 0 011.163 2.8 3.843 3.843 0 01-1.097 2.905 3.872 3.872 0 01-2.887 1.158v-.014zm14.628-8.8v-2.463h-3.704v14.343h3.704v-6.79a3.58 3.58 0 012.766-3.654 3.595 3.595 0 011.645.002v-4.121a4.416 4.416 0 00-4.411 2.757v-.073z"/></g><defs><clipPath id="clip0"><path fill="#fff" d="M0 0h174v44H0z"/></clipPath></defs></svg>