<svg width="179" height="44" fill="none" xmlns="http://www.w3.org/2000/svg"><path d="M64.094 26.88c-1.764 0-2.478-1.239-2.478-3.389v-5.945h5.115V15.28h-5.115v-3.796h-2.478v12.24c0 3.486 1.249 5.422 4.381 5.422 1.547 0 2.816-.542 3.569-1.142l-.773-1.879c-.516.349-1.25.755-2.22.755zM74.78 14.97c-1.745 0-3.41.484-4.659 1.24l.654 1.936c1.11-.58 2.141-1.007 3.846-1.007 2.756 0 3.172 1.762 3.172 4.3-.931-.659-2.379-.872-3.469-.872-3.013 0-5.273 1.55-5.273 4.338 0 2.634 1.744 4.203 4.282 4.203 2.3 0 3.628-.93 4.46-1.976v1.762h2.34v-8.366c0-3.524-1.388-5.558-5.353-5.558zm2.993 10.206c-.713.814-1.764 1.763-3.588 1.763-1.606 0-2.518-.853-2.518-2.15 0-1.569 1.487-2.247 2.974-2.247 1.21 0 2.26.31 3.132.91v1.724zM91.294 14.97c-1.923 0-3.786.814-4.738 1.917V15.28h-2.478v19.695h2.478v-6.7c.991.639 2.458.93 3.945.93 4.381 0 7.256-3.177 7.256-7.34-.02-4.01-2.498-6.895-6.463-6.895zm-1.03 11.969c-1.329 0-2.479-.252-3.728-1.066v-6.758c.873-1.066 2.38-1.879 4.025-1.879 2.874 0 4.52 1.975 4.52 4.725.02 2.886-1.844 4.978-4.818 4.978zm23.393-11.95l-4.084.969c-.952-.64-2.161-1.007-3.529-1.007-3.509 0-5.71 2.266-5.71 4.996 0 1.995 1.15 3.7 3.133 4.474-.258.31-.377.736-.377 1.143 0 .387.099.813.337 1.123-2.676.542-4.46 1.936-4.46 4.144 0 2.963 3.033 4.338 7.097 4.338s7.097-1.433 7.097-4.338c0-2.963-3.033-4.396-7.097-4.396-.278 0-.555.039-.833.039a1.6 1.6 0 01-.277-.91c0-.252.039-.523.158-.756.317.039.615.039.932.039 3.45 0 5.71-2.188 5.71-4.9 0-.852-.219-1.665-.655-2.362l2.637-.64-.079-1.955zm-7.593 13.46c2.974 0 4.778.91 4.778 2.42 0 1.55-1.884 2.364-4.778 2.364-2.875 0-4.778-.853-4.778-2.363s1.804-2.42 4.778-2.42zm-.02-5.539c-2.042 0-3.37-1.24-3.37-2.943 0-1.704 1.328-3.021 3.37-3.021 2.082 0 3.37 1.336 3.37 3.02 0 1.763-1.427 2.944-3.37 2.944zm16.038-7.94c-4.579 0-7.196 3.157-7.196 7.127 0 4.3 2.954 7.127 7.474 7.127 1.864 0 3.886-.581 5.234-1.782l-.773-1.917c-.893.813-2.479 1.433-4.283 1.433-2.735 0-4.659-1.51-4.877-4.086h10.726c.099-.426.158-.969.158-1.627 0-3.796-2.874-6.275-6.463-6.275zm-4.559 5.907c.277-2.092 1.883-3.641 4.44-3.641 2.419 0 3.906 1.394 4.025 3.64h-8.465zm16.692-4.009v-1.607h-2.478v13.634h2.478V19.23c.536-1.007 1.309-1.937 2.915-1.937.832 0 1.209.116 1.883.523l.872-2.266c-.456-.329-1.031-.523-2.161-.523-1.784 0-2.795.814-3.509 1.84zm8.307 12.027H145V15.26h-2.478v13.634zm1.308-20.2c-.872 0-1.605.582-1.605 1.453 0 1.007.753 1.569 1.605 1.569.774 0 1.527-.581 1.527-1.569-.02-.871-.753-1.452-1.527-1.452zm12.629 6.333c-1.824 0-3.588.872-4.56 1.918V15.28h-2.478v13.634h2.478v-9.838c.892-1.007 2.359-1.762 3.945-1.762 2.597 0 3.946 1.336 3.946 4.183v7.417h2.478v-7.882c0-4.28-2.181-6.004-5.809-6.004zM179 21.206c0-3.757-2.875-6.236-6.483-6.236-4.579 0-7.196 3.157-7.196 7.127 0 4.3 2.954 7.127 7.474 7.127 1.863 0 3.885-.581 5.234-1.782l-.774-1.917c-.892.813-2.478 1.433-4.282 1.433-2.736 0-4.659-1.51-4.877-4.086h10.726c.119-.446.178-.988.178-1.666zm-11.043-.33c.278-2.09 1.884-3.64 4.441-3.64 2.419 0 3.906 1.394 4.025 3.64h-8.466zm-123.014-.057c0-.04 0-.097-.02-.136a21.583 21.583 0 00-1.784-7.398C40.9 25.776 29.718 35.246 16.276 35.246c-5.253 0-10.17-1.452-14.333-3.97.218.465.456.93.714 1.375v.02c.257.426.515.852.793 1.278.02.02.02.039.04.058a23.548 23.548 0 001.823 2.363c.04.038.06.077.1.116a23.099 23.099 0 002.1 2.053c.06.038.1.077.16.135a22.44 22.44 0 002.339 1.724c.06.039.138.077.218.135.376.233.753.465 1.15.678.04.02.079.039.118.078a16.1 16.1 0 001.29.639l.237.116c.377.174.753.33 1.15.465.08.038.178.058.258.097.456.155.912.31 1.367.445.08.02.16.039.258.078.397.116.793.213 1.19.31.119.019.218.057.337.077.476.097.951.194 1.427.252.06 0 .12.019.198.019.437.058.853.097 1.29.136.138.019.257.019.396.019.495.039.99.058 1.506.058 12.47 0 22.58-9.838 22.58-21.98-.019-.446-.019-.814-.039-1.201zm-5.53-13.286a22.766 22.766 0 00-4.74-4.008c-3.786 4.531-9.575 7.436-16.057 7.436-4.739 0-9.1-1.549-12.59-4.163C2.817 10.128.635 14.389 0 19.153c4.223 2.653 9.238 4.183 14.63 4.183 11.083 0 20.619-6.487 24.782-15.803zM30.688 1.53A23.144 23.144 0 0022.382 0c-3.33 0-6.502.717-9.337 1.975a27.67 27.67 0 008.168 1.24c3.33-.02 6.522-.62 9.476-1.685z" fill="#fff"/></svg>